 <svg  version="1.0" xmlns="http://www.w3.org/2000/svg"  width="300.000000pt" height="300.000000pt" viewBox="0 0 300.000000 300.000000"  preserveAspectRatio="xMidYMid meet">  <g transform="translate(0.000000,300.000000) scale(0.050000,-0.050000)" fill="#ddd25a" stroke="none"> <path d="M1990 3742 c-105 -65 -134 -119 -155 -284 -25 -193 -45 -203 -177 -86 -118 104 -169 128 -281 128 -89 0 -283 -75 -265 -103 11 -19 -34 -15 -52 4 -23 25 -255 194 -312 228 -42 24 -81 32 -116 23 -53 -13 -217 -151 -181 -153 10 0 3 -10 -17 -21 -25 -15 -30 -29 -17 -45 12 -14 17 -161 14 -363 -7 -384 -4 -398 116 -520 138 -140 279 -167 452 -89 l89 41 100 -43 c220 -95 467 -4 553 204 29 70 70 74 87 9 39 -158 255 -276 351 -193 76 66 117 69 198 13 92 -64 162 -66 227 -7 69 61 84 62 167 5 123 -83 407 -95 518 -22 64 41 88 40 194 -8 119 -54 354 -54 473 0 80 36 90 37 153 7 77 -37 153 -25 212 34 53 53 119 49 176 -11 29 -30 70 -50 104 -50 41 0 75 -22 124 -80 38 -44 76 -80 85 -80 8 0 27 -16 41 -35 61 -83 529 -36 529 54 0 11 11 21 25 21 14 1 52 39 85 85 l60 85 6 395 6 394 -63 79 c-136 170 -537 195 -621 39 -11 -21 -29 -33 -39 -26 -11 6 -24 -2 -30 -18 -15 -39 -80 -20 -146 43 -122 114 -543 149 -543 44 0 -36 -119 -66 -154 -37 -29 23 -32 23 -18 -3 9 -18 3 -16 -13 5 -16 19 -35 29 -42 21 -7 -7 -13 -3 -13 8 0 81 -317 85 -423 7 l-63 -47 -84 46 c-97 53 -156 46 -238 -30 -56 -52 -84 -62 -95 -34 -28 65 -196 121 -241 79 -61 -58 -196 -94 -196 -52 0 10 -13 17 -30 17 -16 0 -30 8 -30 19 0 10 -17 24 -38 30 -54 18 -122 81 -122 115 0 33 -108 161 -124 145 -6 -5 -22 4 -36 21 -34 41 -97 38 -170 -8z m170 -271 l0 -169 97 11 c237 28 309 -73 319 -448 l8 -265 -82 0 -82 0 0 219 c0 308 -39 381 -192 352 l-68 -13 0 -279 0 -279 -80 0 -80 0 0 509 0 508 65 9 c36 4 72 9 80 11 8 2 15 -73 15 -166z m-1420 -61 l0 -110 120 0 120 0 0 -70 0 -70 -120 0 -120 0 0 -186 c0 -229 58 -290 201 -214 37 20 89 -80 65 -124 -15 -29 -161 -56 -228 -43 -186 35 -200 75 -193 532 l5 365 60 12 c33 8 67 14 75 16 8 1 15 -47 15 -108z m819 -123 c30 -33 -18 -152 -55 -137 -188 72 -325 -36 -298 -236 20 -148 180 -226 314 -154 37 20 86 -101 54 -133 -57 -57 -282 -48 -388 16 -203 123 -188 511 24 633 82 47 310 54 349 11z m2272 4 c105 -44 129 -121 129 -420 0 -282 16 -257 -180 -278 -274 -30 -436 114 -352 314 37 90 125 133 271 133 81 0 101 7 101 33 0 91 -126 134 -251 86 -66 -24 -63 -26 -72 60 -10 99 192 140 354 72z m708 -6 c118 -59 138 -120 142 -415 l4 -260 -83 -6 -82 -6 0 242 c0 274 -13 313 -109 331 -140 26 -142 23 -134 -291 l7 -280 -87 0 -87 0 0 341 c0 325 2 341 40 349 22 5 58 12 80 17 100 21 244 11 309 -22z m843 5 c40 -15 27 -714 -14 -795 -50 -96 -207 -147 -385 -124 -135 18 -151 31 -135 114 l13 69 108 -28 c136 -35 229 -14 270 59 38 67 25 79 -58 55 -357 -102 -536 463 -201 637 87 45 301 52 402 13z m-2502 -226 c0 -293 15 -324 163 -324 l101 0 -7 280 -7 280 85 0 85 0 0 -339 0 -339 -95 -14 c-388 -61 -485 28 -485 447 l0 245 80 0 80 0 0 -236z m-964 -59 l-6 -75 -175 -6 -175 -6 0 81 0 81 181 0 181 0 -6 -75z"/> <path d="M3652 2903 c-127 -28 -118 -138 13 -171 105 -27 135 -7 135 87 0 45 -8 81 -18 81 -10 0 -31 3 -45 8 -15 4 -53 1 -85 -5z"/> <path d="M5064 3159 c-152 -61 -113 -379 46 -383 141 -4 150 8 150 203 0 206 -40 243 -196 180z"/> </g> </svg> 